<svg xmlns="http://www.w3.org/2000/svg" width="214.281" height="140.001" viewBox="0 0 214.281 140.001">
  <g id="img-360" transform="translate(-44.042 -808.731)">
    <path id="Path_3056" data-name="Path 3056" d="M231.846,1337.675c1.27-.3,1.808.425,2.123,1.491a2.114,2.114,0,0,0,.284.466c-.6-.039-1.32-.411-1.533.6.536.055.966.186.9.895-.03.313.088.807.49.743.349-.056.459-.474.286-.866-.114-.258-.177-.538-.287-.8a.434.434,0,0,1,.125-.588c-.091-.488.684-1.176-.426-1.457-.355-.09.044-.448.251-.48,1.412-.214,1.25-1.621,1.82-2.451.382-.557-.2-.645-.664-.532-.224.055-.388.025-.43-.213a.249.249,0,0,1,.275-.307c1.554.335,1.586-1.106,2.127-1.88.43-.615,1.419-.94,1.16-1.966a1.448,1.448,0,0,0,.862-.468,11.959,11.959,0,0,0,1.771-2.835c.176-.381.633-.521.918-.864.662-.795,1.086-1.74,1.836-2.5a10.376,10.376,0,0,0,1.519-1.82,3.227,3.227,0,0,1,1.658-1.094c.59-.151.71-.94,1.407-.8.156.032.158-.219.068-.379a1.08,1.08,0,0,1-.072-.247c1.012.272,1.248-.8,1.491-1.213.385-.66,1.571-.125,1.455-1.174.906.22,1-.994,1.779-1.022.063,0,.153-.259.17-.4.061-.523.215-.762.789-.449.517.282.7-.059.669-.524a.779.779,0,0,1,.936-.843c.676.259.788-.341,1.042-.569.217-.194.163-.653.593-.206.074.077.324-.028.267-.148-.273-.579.474-1.057.131-1.637-.077-.129-.226-.4.109-.415.247-.012.236.21.243.418.011.35.092.822.438.855a.813.813,0,0,0,.838-.66c.234-1.111.533-.477.808.008.345-.254.2-.68.431-.949.148-.169.168-.368.491-.186.43.242.784-.021.774-.562-.008-.5.293-.554.661-.565.6-.019.24.224.125.421-.02.035.062.182.121.2.145.046.228-.071.289-.186a2.138,2.138,0,0,1,1.652-1.281c.17-.023.691-.039.265-.478.069-.058.171-.18.2-.163,1.262.641,2.1-.452,2.97-.907a26,26,0,0,0,2.727-1.71,6.381,6.381,0,0,1,2.069-.654,6.571,6.571,0,0,0,2.037-.914,6.458,6.458,0,0,1,2.045-.814c.955-.184,1.832-.719,2.8-.974a26.03,26.03,0,0,1,5.738-1.266,5.775,5.775,0,0,0,1.648-.43,5.37,5.37,0,0,1,3.051.048c.122.028.285.077.373.024.929-.561,1.654.241,2.469.385.933.165,1.973.12,2.706.925.076.083.283.056.344.141.373.522,1.256-.484,1.267.246.012.79.926.475.935,1.088,0,.088.373.193.584.249.239.064.627-.239.365.455-.2.539.6.058.827.26.286.253-.759.653.038.924a6.856,6.856,0,0,0,1.138.15c-.978.464-.081.8-.135,1.253-.058.474.3,1.011,1.144.561-.785,1.306.181,2.325.049,3.33-.166,1.265,1.2,1.731,1.208,3.034l-.741-.7a21.671,21.671,0,0,1-.575,3.783,18.537,18.537,0,0,1-1.628,3.817c-.726,1.21-1.668,2.386-1.681,3.927,0,.107-.081.3-.147.307-.987.158-1.229,1.081-1.574,1.737-.607,1.153-1.808,1.933-2.005,3.339-.064.455-.682.5-.968.862-.968,1.241-1.857,2.549-2.851,3.756-.814.989-1.792,1.869-2.583,2.893a17.1,17.1,0,0,1-2.337,2.712c-.147.125-.315.285-.164.48a.663.663,0,0,0,.749.279c.317-.167.341.035.546.154a31.941,31.941,0,0,1,3.177,1.782c.305.227.4-.419.774-.2-.31.984.521,1.555,1,2.156a11.3,11.3,0,0,1,2.229,6,15.4,15.4,0,0,0,.12,2.624c.118.43-.583,1.149-.488,1.733.189,1.158-.749,1.94-.819,2.915-.065.91-1.145,1.524-.62,2.526-.7.194-.742.919-1.092,1.388-.274.366-.678.751-.353,1.373.071.137-.293.6-.012.936.009.011-.019.079-.033.08-1.489.108-1.436,1.529-1.857,2.4a79.729,79.729,0,0,1-4.406,7.041c-.9,1.458-1.549,3.052-2.332,4.57a26.147,26.147,0,0,1-2.449,3.6,29.532,29.532,0,0,0-2.834,4.394c-.913,1.807-2.446,3.159-3.559,4.826-2.771,4.149-6.1,7.875-9.076,11.875a56.125,56.125,0,0,1-9.153,9.681,16.99,16.99,0,0,1-2.4,1.837,20.383,20.383,0,0,1-2.97,1.866,5.592,5.592,0,0,1-2.288-.026c-.516-.057,0-.467-.139-.758-.3-.642-.69-1.379-.131-2.115-.651-1.237.664-1.805.967-2.72a5.77,5.77,0,0,1,.837-2.081c.388-.464-.7-.436-.408-.947.836.425,1.895-.476,2.023-1.541a1.636,1.636,0,0,1,.733-1.4c.472-.306.759-1.166,1.183-1.758.2-.279.414-.607.592-.911.532-.909,1.423-1.526,1.885-2.451.691-1.382,1.861-2.439,2.535-3.82.76-1.556,2.161-2.666,2.874-4.28.222-.5.309-1.259,1.059-1.577a.913.913,0,0,0,.321-1.257c.635-.174.759-.8,1.088-1.24a17.64,17.64,0,0,0,2.152-3.617c.364-.851,1.135-1.655,1.605-2.538q1.384-2.6,2.79-5.189c.328-.6.651-1.2,1.042-1.776a28.632,28.632,0,0,0,2.761-6.056c.087-.228.288-.455.1-.712-.143-.2-.452-.378-.279-.639.271-.406.36.188.585.162.308-.036.3-.329.344-.507a45.932,45.932,0,0,1,1.813-4.4c.517-1.459.963-2.937,1.456-4.4.161-.48-.809-.966.206-1.353-1.149.478-2.312.406-3.343.8a23.517,23.517,0,0,1-2.552.637c-1.9.5-3.853.793-5.733,1.347-.529.156-.625.339-.976-.23-.38-.617-1.575-.17-1.947.922.064-1.924-1.33-1.529-2.192-1.688-.809-.149-1.217-.931-2.014-.97-.031,0-.09-.11-.081-.119.816-.888-.424-.9-.569-1.367a5.329,5.329,0,0,0-.7-1.484,4.379,4.379,0,0,0-1-1.346c-.085-.058-.176-.281-.148-.307.992-.952-.087-1.91.023-2.848a13.413,13.413,0,0,1,.563-2.754,2.781,2.781,0,0,0,.2-1.843.4.4,0,0,1,.042-.349c1.356-1.2,1.851-3.1,3.368-4.165.077-.054.177-.111.209-.19.777-1.919,2.7-2.88,3.815-4.562a8.636,8.636,0,0,1,3-2.814.988.988,0,0,0,.462-.587,3.318,3.318,0,0,1,1.2-1.87c.382-.271.432-1.025.6-1.57.09-.285.209-.726.482-.266.337.568.548.287.749.018.439-.587,1.248-.913,1.278-1.8.009-.27.2-.161.343-.116.337.107.675-.072.689-.326.027-.494.443-.558.626-.8,1.123-1.509,2.593-2.721,3.62-4.3.194-.3.643-.687.391-.986-.292-.347-.8-.01-1.133.162-2.422,1.252-5.015,2.159-7.329,3.633-.855.545-1.755,1.023-2.656,1.49a61.909,61.909,0,0,0-9.333,6.388c-2.521,1.96-4.521,4.448-6.973,6.471a9.246,9.246,0,0,0-2.937,5.22c-.153.659.162,1.241-.787,1.625a1.3,1.3,0,0,0-.422,1.958c.216.276-.4.475-.405.883a41.82,41.82,0,0,0-.029,4.671,4.919,4.919,0,0,1,.038.948,1.238,1.238,0,0,1-1.412,1.216,1.152,1.152,0,0,1-1.091-1.478,26.641,26.641,0,0,0,.253-3.133,3.034,3.034,0,0,0-.09-1.229c-.124-.351,0-.9-.673-.814-.564.072-.945.256-.956.932-.053,3.37-.11,6.741.1,10.108a7.154,7.154,0,0,1,.055.854c-.058,1-.606,1.575-1.446,1.552a1.471,1.471,0,0,1-1.5-1.708,24.759,24.759,0,0,0,.127-4.19,27.184,27.184,0,0,0-1.32-6.015c-.239-.814-.9-.182-.973-.025-.222.481-.351.247-.587.067a2.029,2.029,0,0,1-.417-1.411c.03-.113.027-.341-.007-.35-.637-.173-.472-1.115-1.264-1.259-.22-.04-.307-1-.39-1.544a3.5,3.5,0,0,1-.144-1.483.909.909,0,0,0-.489-.963c-.441-.253-.408.114-.521.373-.069.157-.272.1-.326-.112-.059-.232.3-.361.086-.716-.765.713-1.466.326-2.153-.193-.274-.207-.457.132-.7.135-.335,0-.673-.01-.743-.418-.075-.436.166-.655.595-.667a1.868,1.868,0,0,0,1.65-1.183c.253-.468.264-.822-.2-1.086-.376-.212-.263-.53-.266-.834A.94.94,0,0,1,231.846,1337.675Z" transform="translate(-176.865 -467.141)" fill="#fdb200"/>
    <path id="Path_3057" data-name="Path 3057" d="M2892.936,1223.248c.083-.1.239-.256.3-.158.365.609,1.206.74,1.444,1.47.085.26.232.673.542.46s.058-.534-.279-.765l1.358-.426c-.326-.089-.7.194-.908-.143-.085-.14.084-.47.2-.683a.3.3,0,0,1,.488-.093,8.468,8.468,0,0,0,1.659,1.113c.771.548.275,1.205.138,1.808-.107.472-.42.84.106,1.349.391.378-.124.729-.5.7-.763-.064-.186.636-.565.885-.294.193.431.043.414.475-.1.244-.858.181-.629.75.19.474.682.506,1.135.536,1.959.132,3.928.188,5.874.425a9.259,9.259,0,0,1,4.06,2.01c3.7,2.6,5.891,6.272,7.491,10.419,1.392,3.607,1.735,7.389,2.248,11.155a23.478,23.478,0,0,1,.37,6.439c-.544,3.925-.447,7.916-1.3,11.813a79.816,79.816,0,0,1-5.381,15.3,30.814,30.814,0,0,1-3.182,5.074,39.721,39.721,0,0,1-4.264,5.284,57.211,57.211,0,0,1-9.682,7.482,15.382,15.382,0,0,1-4.807,1.754c-1.763.422-3.555.615-5.321.973a11.044,11.044,0,0,1-4.444-.221,19.105,19.105,0,0,1-8.429-3.471,17.92,17.92,0,0,1-4.435-5.277,33.383,33.383,0,0,1-2.653-6.309,37.548,37.548,0,0,1-1.093-8.008,54.728,54.728,0,0,1,1.138-15.142c.337-1.746.47-3.528.968-5.246.81-2.8,1.635-5.6,2.646-8.332a60.153,60.153,0,0,1,3.14-7.768c2.056-3.824,3.9-7.778,6.46-11.312,1.081-1.49,2.239-2.925,3.361-4.386.2-.259.6-.439.354-.88a.488.488,0,0,1-.022-.176c1.134.384.639-1.174,1.457-1.227.218-.014.346-.369.359-.628.023-.474.252-.63.777-.811a2.117,2.117,0,0,0,1.083-1.066c.206-.388-.77.023-.482-.556.135-.272.518-.749.369-.778-1.158-.231.028-.646-.1-.938-.19-.422-.6-.772-.506-1.291.133-.729.645-.639,1.071-.364a2.524,2.524,0,0,0,2.368.035c-.354.765.313.831.651.8a11.3,11.3,0,0,0,4.4-1.017c.386-.205.462-.646.563-1.041ZM2888,1247.817a20.059,20.059,0,0,0-1.909,3.572c-2.969,5.818-4.507,12.1-6.086,18.377-.449,1.785-.589,3.642-.972,5.425-.859,3.995-.062,7.834.636,11.7.268,1.484,1.022,1.87,2.436,1.407a22.867,22.867,0,0,0,6.637-3.634,31.807,31.807,0,0,0,2.987-3.047,21.69,21.69,0,0,0,4.384-5.566,35.768,35.768,0,0,0,3.636-9.049c.89-4.452,1.821-8.889,1.278-13.491a38.022,38.022,0,0,0-1.141-5.482,3.674,3.674,0,0,0-2.692-2.587c-.5-.153-.725-.088-.761.439-.2,3-1.007,5.972-.553,9.014a11.006,11.006,0,0,1-.064,4.172,21.92,21.92,0,0,0-.552,6.716,1.083,1.083,0,0,1-.01.19c-.077.775-.467,1.271-1.282,1.228a1.176,1.176,0,0,1-1.19-1.331q.013-5.341.042-10.682c.018-3.338.034-6.675.076-10.013.008-.61-.291-.762-.81-.79-.536-.029-.739.193-.729.728.019.984,0,1.97-.019,2.955q-.062,2.954.035,5.907a1.19,1.19,0,0,1-1.262,1.356c-.717-.038-1.156-.595-1.14-1.477.01-.572.016-1.147.082-1.715A5.931,5.931,0,0,0,2888,1247.817Z" transform="translate(-2681.794 -393.976)" fill="#fdb200"/>
    <path id="Path_3058" data-name="Path 3058" d="M1667.325,1322.6c.369-.329.924-.631.082-1.073-.143-.075-.145-.505-.043-.487.843.157.314-.45.445-.69.289-.531.268-.831-.322-1.108-.206-.1-.116-.459.049-.653.416-.141.2.852.717.387.265-.236.566-.508.169-1.034-.178-.236-.612-1.207.5-1.348.442-.056.489-.551.4-.943a1.231,1.231,0,0,1,.268-1.315c.115-.107.1-.357.135-.542.061-.316-.482-.482-.22-.845.237-.328.336.3.6.087a7.86,7.86,0,0,0,.467-2.6c-.2-.387-1.188-.342-.84-.736.471-.533,1.154-1.316,1.75-1.347.906-.047.124-.822.683-.981.416-.119.677-.674-.181-.743.416-.522-.208-.954-.119-1.423a.525.525,0,0,1,.592-.37c.261.061.316.252.143.511-.324.485.22.693.333,1.242.273-.542.473-.878.315-1.313-.03-.083-.041-.248,0-.27.874-.494.815-1.169.269-1.852.554-.337.366.553.78.287a.914.914,0,0,0,.3-.938c-.044-.589.605-1.093.15-1.761-.116-.171.365-.254.593-.327.828-.262.9-.556.163-1.249,1.172.006,1.4-.991,1.932-1.636.472-.569.383-1.081-.437-1.363.386-.042.857-.491.834.335-.006.219.3.088.482.058.746-.124-.441-.535.155-.819.995-.474-.565-.252-.064-.7.763-.041.874-.523,1.047-1.438a3.5,3.5,0,0,1,1.938-2.824c.141-.055.37-.151.433-.093.491.458.669.068.79-.3a.585.585,0,0,0-.453-.8c-.234-.073-.459-.178-.731-.285a.641.641,0,0,1,.761-.248,2.008,2.008,0,0,0,2.051-1.166c.318-.481.957-.733,1-1.409.006-.09.2-.171.125-.312-.106-.207-.773.265-.468-.256a1.3,1.3,0,0,1,1.271-.535c.358.078.569-.032.2-.374-.11-.1-.288-.132-.3-.393.818-.066,1.3-.444,1.063-1.357.638-.119.762-.787,1.2-1.136.8-.638,1.9-.972,2.374-1.947.272-.559,1.214-.679.963-1.565-.077-.27.251-.184.409-.239a1.623,1.623,0,0,0,1.048-2.269,1.956,1.956,0,0,0,2.052-.807c.782-.925,1.619-1.816,2.407-2.732a13.841,13.841,0,0,1,2.641-2.115c.591-.423,1.1-.949,1.645-1.383.746-.594.981-1.881,2.251-1.807.066,0,.2-.114.2-.163-.114-1.013.667-.718,1.182-.827.932-.2,1.247-.907,1.436-1.83-.008.905.743.546,1.125.789.217.138.328-.089.392-.275a1.347,1.347,0,0,1,1.219-.857c-.1.343-.2.662-.286.983-.052.185-.1.392.083.519.3.21.254-.129.36-.241.178-.189.284-.035.333.118.074.231.038.515.326.617.142-.03.14-.12.124-.218-.044-.269-.287-.521-.089-.806a.412.412,0,0,1,.245-.082,4.326,4.326,0,0,1,.344.891c.025.126-.122.374.074.384,1.4.07.814,1.353,1.189,2.029.129.231-.007.771.116,1.164.081.259.02.439-.289.46-.246.017-.531-.036-.54.36s.457.165.519.417c-.571.61-1.425.921-1.808,1.711-.312.643-.947.977-1.409,1.454-1.747,1.8-3.3,3.768-4.984,5.62-4.017,4.43-7.2,9.458-10.554,14.356a74.2,74.2,0,0,0-5.653,9.709c-.509,1.056-1.24,2-1.777,3.047a44.078,44.078,0,0,0-3.5,9.154c-.468,1.808-1.266,3.518-1.689,5.359a47.9,47.9,0,0,0-.75,6.716c-.054.63.266.853.811.513,1.48-.924,3.186-1.356,4.7-2.222a11.886,11.886,0,0,1,2.74-.64c1.52-.413,3.044-.828,4.526-1.355a7.073,7.073,0,0,1,2.421-.347c1.715,0,3.4-.49,5.12-.325a.518.518,0,0,0,.365-.071c.528-.517,1.019-.307,1.662-.147a17.555,17.555,0,0,0,3.4.338,13.741,13.741,0,0,1,7.182,2.2,12.477,12.477,0,0,1,4.579,6.271,14.136,14.136,0,0,1-.073,10.406,42.32,42.32,0,0,1-2.433,4.3c-.721,1.375-1.93,2.288-2.827,3.455a15.708,15.708,0,0,1-4.222,3.628c-.949.583-2.155.819-2.831,1.923-.21.342-1.062.252-1.513.615a16.325,16.325,0,0,1-4.562,2.437,25.776,25.776,0,0,1-6.842,1.767,18.09,18.09,0,0,1-4.892-.182,4.243,4.243,0,0,0-1.8-.1c-.544.131-.76-.4-1.173-.52a14.158,14.158,0,0,1-3.718-1.341c-.348-.217-.416.128-.592.276a.325.325,0,0,1-.505-.01c-.175-.228-.014-.3.19-.392.556-.241.146-.414-.067-.563-.832-.584-1.863-.861-2.485-1.782-.257-.381-.925-.013-1,.142-.31.628-1,1.054-.972,1.867.035.92.005,1.842.017,2.764.012.965-.4,1.609-1.079,1.644s-1.257-.542-1.274-1.5c-.037-2.1.035-4.192.026-6.288,0-.295.444-1.159-.6-.643-.295.146-.562-.449-.4-.5.679-.218.267-.912.636-1.21.228-.184.324-.328-.046-.4-.318-.066-.412-.622-.747-.445-.3.156-.127.576-.149.881-.393,5.593.03,11.188-.048,16.781a31.3,31.3,0,0,0,.022,3.239,1.259,1.259,0,0,1-1.21,1.51c-.7,0-1.17-.582-1.127-1.474a80.284,80.284,0,0,0-.651-14.744,24.183,24.183,0,0,1,.111-5.884c.139-1.261.16-2.535.226-3.8a1.459,1.459,0,0,0-.528-1.445.552.552,0,0,1-.185-.688c.567-1.464-.19-2.874-.175-4.316a10.615,10.615,0,0,0-.251-1.4c-.067-.522.073-1.069-.871-.732-.327.116-1.065-.475-1.39-.911-.381-.512-.915-.946-.821-1.836a1.015,1.015,0,0,1,.652-.952c.418-.222.547.025.6.42.043.3.378.268.53.2.216-.1.088-.35-.011-.489-.276-.383-.234-.551.176-.894s-.042-.986-.013-1.507c.019-.337-.376-.716.163-.966-.528-.724.482-1.638-.288-2.33-.139-.125-.357-.245-.117-.434.975-.769.8-1.623.16-2.468-.15-.2-.1-.242.034-.319.6-.337.488-.733.239-1.266-.056-.12-.669-.969.333-1,.187-.005.2-.234.131-.386-.228-.533.049-1.06,0-1.589Zm27.646,16.21a59.448,59.448,0,0,0-10.682,1.931c-.879.236-.934.546-.4,1.291a16.722,16.722,0,0,0,2.758,2.615,4.652,4.652,0,0,0,3.637,1.066,11.9,11.9,0,0,0,3.912-1.156,15.319,15.319,0,0,0,5.65-4.112c.543-.652.4-.945-.447-1.165A31.357,31.357,0,0,0,1694.971,1338.807Z" transform="translate(-1541.986 -433.239)" fill="#fdb200"/>
    <path id="Path_3059" data-name="Path 3059" d="M3895.189,892.038c.428.1.423.8.644.633.688-.51,1.605-.134,2.234-.695.052-.046.09-.2.061-.227-.084-.082-.221-.194-.308-.173-.206.049-.388.2-.594.251a.5.5,0,0,1-.623-.308c-.087-.216-.061-.6.1-.6.936-.013,1.438-1.038,2.389-.97.678.048,1.206.235,1,1.081-.2.83.137,1,.941,1.083a12.188,12.188,0,0,1,7.142,3.724,12.063,12.063,0,0,1,3.861,11.064,18.964,18.964,0,0,1-4.2,8.971,22.577,22.577,0,0,1-5.146,4.37,12.612,12.612,0,0,1-2.8,1.106,1.293,1.293,0,0,0-.854,1.018,21.482,21.482,0,0,0-.3,5.792,26.741,26.741,0,0,0,.044,3.811,1.375,1.375,0,0,1-1.2,1.646,1.275,1.275,0,0,1-1.312-1.441c.005-1.969.117-3.938.169-5.907.03-1.144.034-2.29.041-3.435,0-.346.045-.762-.445-.808-.557-.052-.593.405-.6.779-.026,1.3-.014,2.606-.028,3.909a4.742,4.742,0,0,1-.076,1.042,1.269,1.269,0,0,1-1.314,1.146,1.237,1.237,0,0,1-1.25-1.309,18.266,18.266,0,0,1,.113-3.045,4.369,4.369,0,0,0-1.779-4.112,29.169,29.169,0,0,1-3.407-2.9,11.684,11.684,0,0,1-3.049-10.218,14.181,14.181,0,0,1,1.328-4.557,2.9,2.9,0,0,0,.447-1.618,1.9,1.9,0,0,1,.769-1.052,1.754,1.754,0,0,0,.771-1.012c.117-.25.036-.7.542-.6-.083-.409.57-.654.1-1.25-.4-.511-1.234-1.166-.469-2.059.313-.365.607-.419.762.055.223.683.885.867,1.312,1.311.214.223.653.157.674.036.151-.874,1.254-.992,1.4-1.83.065-.37.237-.483.635-.514C3894.111,894.131,3895.3,892.966,3895.189,892.038Zm.71,17.593c-.048,1.012.281,1.451,1.124,1.294a5.079,5.079,0,0,0,3.408-1.91,2.478,2.478,0,0,0-.037-3.317,4.354,4.354,0,0,0-2.948-1.167c-.707-.029-.662.565-.775,1-.079.3-.3.705.344.715a.461.461,0,0,1,.438.53c-.025.33-.291.411-.559.361-.448-.083-.539.233-.651.529A8.692,8.692,0,0,0,3895.9,909.63Z" transform="translate(-3653.884 -77.273)" fill="#fdb200"/>
    <path id="Path_3060" data-name="Path 3060" d="M3976.6,924.915c-.089-.113-.188-.228-.274-.352a1.42,1.42,0,0,1,.137-1.806,1.745,1.745,0,0,1,1.843.288,1.38,1.38,0,0,1-.283,1.8,3.669,3.669,0,0,1-.479.3c-.115.081-.371-.012-.347.218a.306.306,0,0,0,.409.274c.35-.064.568.086.537.455-.028.327-.245.405-.547.324-.5-.133-.374.831-1,.546-.524-.241-.108-.765-.39-1.07-.209-.228-.779-.229-.57-.722C3975.817,924.762,3976.3,925.233,3976.6,924.915Z" transform="translate(-3740.604 -108.348)" fill="#fdb200"/>
    <path id="Path_3061" data-name="Path 3061" d="M1649.276,2950.513a1.224,1.224,0,0,1-1.058-.67,1.365,1.365,0,0,1,.385-1.47,1.161,1.161,0,0,1,1.4-.258.935.935,0,0,0,.986.052.717.717,0,0,1,1.077.425c.2.571-.219.869-.675.9a1.226,1.226,0,0,0-.981.569C1650.139,2950.427,1649.687,2950.418,1649.276,2950.513Z" transform="translate(-1526.175 -2035.354)" fill="#fdb200"/>
    <path id="Path_3062" data-name="Path 3062" d="M3450.663,1072.068c.044-.6.088-1.171.53-1.283a1.433,1.433,0,0,1,1.416.309c.4.412.215.789-.009,1.2-.242.447-.62.866-.24,1.457.131.2-.038.506-.334.579-.215.054-.573.047-.575-.166C3451.445,1073.314,3450.781,1072.715,3450.663,1072.068Z" transform="translate(-3241.166 -249.267)" fill="#fdb200"/>
    <path id="Path_3063" data-name="Path 3063" d="M358.035,1827.765a1.386,1.386,0,0,1,1.314-1.352c.451-.011,1.184.879,1.183,1.436a1.443,1.443,0,0,1-1.418,1.156C358.448,1828.949,357.944,1828.673,358.035,1827.765Z" transform="translate(-298.732 -968.255)" fill="#fdb200"/>
    <path id="Path_3064" data-name="Path 3064" d="M80.186,2154.319c.777.055,1.4.209,1.379,1.121a1.4,1.4,0,0,1-1.239,1.421,1.483,1.483,0,0,1-1.206-1.363C79.212,2154.873,79.337,2154.2,80.186,2154.319Z" transform="translate(-33.369 -1280.221)" fill="#fdb200"/>
    <path id="Path_3065" data-name="Path 3065" d="M223.264,2052.676a.937.937,0,0,0-.123.116c-.42.514-1.273.373-1.592,1.063-.066.142-.281.1-.423-.007s-.272-.288-.18-.4c.515-.6.349-1.625,1.228-2,.345-.147.689-.4,1.055-.082C223.712,2051.782,223.379,2052.236,223.264,2052.676Z" transform="translate(-168.283 -1182.142)" fill="#fdb200"/>
    <path id="Path_3066" data-name="Path 3066" d="M3368.45,1101.334a2.838,2.838,0,0,1,1.3.861c.235.341.307.787.7,1.049.124.083.112.286.013.431a.357.357,0,0,1-.4.179,3.659,3.659,0,0,1-2.144-1.7C3367.7,1101.738,3367.983,1101.445,3368.45,1101.334Z" transform="translate(-3162.364 -278.392)" fill="#fdb200"/>
    <path id="Path_3067" data-name="Path 3067" d="M4122.393,808.731c.356.063.709.219.587.657a2.239,2.239,0,0,1-.741,1.288c-.322.226-.731.3-.925.722-.082.18-.325.171-.506.053a.353.353,0,0,1-.185-.4,4.143,4.143,0,0,1,1.567-2.256A.906.906,0,0,1,4122.393,808.731Z" transform="translate(-3878.571 0)" fill="#fdb200"/>
    <path id="Path_3068" data-name="Path 3068" d="M3490.3,1193.576c.648.178,1.306-.6,1.65.326.077.206.252.391.1.6a.346.346,0,0,1-.571.019c-.363-.429-.656.142-1.021.041-.381-.107-.673-.233-.637-.656S3490.192,1193.577,3490.3,1193.576Z" transform="translate(-3278.415 -366.023)" fill="#fdb200"/>
    <path id="Path_3069" data-name="Path 3069" d="M4167.245,837.174c.553-.112.819.11.583.644a.985.985,0,0,0-.1.7.32.32,0,0,1-.232.366c-.16.063-.429.02-.413-.084.113-.7-.974-.614-.827-1.28.063-.284.344-.337.616-.325C4166.995,837.2,4167.119,837.18,4167.245,837.174Z" transform="translate(-3921.987 -27.034)" fill="#fdb200"/>
    <path id="Path_3070" data-name="Path 3070" d="M3724.557,1190.5c-.01.434-.216.677-.637.675a.837.837,0,0,1-.888-.9.621.621,0,0,1,.628-.7C3724.216,1189.585,3724.461,1190,3724.557,1190.5Z" transform="translate(-3500.305 -362.346)" fill="#fdb200"/>
    <path id="Path_3071" data-name="Path 3071" d="M288.981,1847.976c-.918.137-.646,1.235-1.387,1.495a.38.38,0,0,1-.49-.188c-.236-.636.6-.911.559-1.559-.013-.185.658-.212,1.026-.124C288.78,1847.622,288.837,1847.783,288.981,1847.976Z" transform="translate(-231.217 -988.367)" fill="#fdb200"/>
    <path id="Path_3072" data-name="Path 3072" d="M45.049,2220.615c-.276.354.191.525.238.816.059.36.152.746-.286.874-.485.142-.541-.208-.559-.6-.022-.472-.834-.889-.079-1.425.174-.123.275-.372.544-.244S45.148,2220.369,45.049,2220.615Z" transform="translate(0 -1342.723)" fill="#fdb200"/>
    <path id="Path_3073" data-name="Path 3073" d="M3398.785,1075.049c-.027-.308-.117-.79.315-.717.463.078,1.039.028,1.382.483a.412.412,0,0,1-.056.335c-.489.077-.708.614-1.071.727C3398.626,1076.1,3398.792,1075.464,3398.785,1075.049Z" transform="translate(-3191.782 -252.694)" fill="#fdb200"/>
    <path id="Path_3074" data-name="Path 3074" d="M1575.935,2946.24c.184.1.573-.015.629.372.052.356-.22.413-.486.422-.413.016-.379.457-.628.641-.286.211-.569.352-.842.087-.334-.324-.109-.631.217-.723C1575.313,2946.9,1575.11,2945.929,1575.935,2946.24Z" transform="translate(-1456.071 -2033.635)" fill="#fdb200"/>
    <path id="Path_3075" data-name="Path 3075" d="M1473.673,3130.718c-.027.431-.214.708-.635.695-.513-.016-.941-.234-.988-.8-.04-.482.332-.658.74-.66A.826.826,0,0,1,1473.673,3130.718Z" transform="translate(-1358.649 -2208.482)" fill="#fdb200"/>
    <path id="Path_3076" data-name="Path 3076" d="M156.353,2407.773a1.012,1.012,0,0,1-1.012.9c-.428.01-.618-.278-.59-.685a.808.808,0,0,1,.94-.824A.678.678,0,0,1,156.353,2407.773Z" transform="translate(-105.328 -1520.795)" fill="#fdb200"/>
    <path id="Path_3077" data-name="Path 3077" d="M3411.808,1226.515c-.265.522-1.1.7-.438,1.306.1.092.241.383.006.474-.307.119-.6-.112-.9-.194-.242-.066-.327-.249-.186-.42C3410.664,1227.227,3410.891,1226.578,3411.808,1226.515Z" transform="translate(-3202.69 -397.493)" fill="#fdb200"/>
    <path id="Path_3078" data-name="Path 3078" d="M1690.836,2447.463c-.372.212-.7.431-.849-.262-.061-.275-.139-.669-.558-.791.863-.1,1.128.482,1.38,1.079Z" transform="translate(-1565.473 -1558.13)" fill="#fdb200"/>
    <path id="Path_3079" data-name="Path 3079" d="M3459.881,1217.733c-.235.305-.545.249-.861.182a.454.454,0,0,1-.4-.458.379.379,0,0,1,.223-.385c.262-.13.4.048.526.244s.139.523.508.423Z" transform="translate(-3248.739 -388.466)" fill="#fdb200"/>
    <path id="Path_3080" data-name="Path 3080" d="M334.463,1956.21c-.019.257-.139.448-.392.456a.444.444,0,0,1-.479-.466.372.372,0,0,1,.38-.438C334.277,1955.751,334.421,1955.935,334.463,1956.21Z" transform="translate(-275.486 -1091.321)" fill="#fdb200"/>
    <path id="Path_3081" data-name="Path 3081" d="M307.744,2051.706c-.29-.039-.469-.162-.5-.4a.4.4,0,0,1,.427-.489.4.4,0,0,1,.409.428A.464.464,0,0,1,307.744,2051.706Z" transform="translate(-250.408 -1181.755)" fill="#fdb200"/>
  </g>
</svg>
